<?xml version="1.0" encoding="UTF-8" standalone="no" ?>
<!DOCTYPE svg PUBLIC "-//W3C//DTD SVG 1.1//EN" "http://www.w3.org/Graphics/SVG/1.1/DTD/svg11.dtd">
<svg xmlns="http://www.w3.org/2000/svg" xmlns:xlink="http://www.w3.org/1999/xlink" version="1.1" width="462.78399999999993" height="144.94199999999998" xml:space="preserve">
<desc>Created with Fabric.js 1.6.0-rc.1</desc>
<defs></defs>
<g style="stroke: none; stroke-width: 1; stroke-dasharray: none; stroke-linecap: butt; stroke-linejoin: miter; stroke-miterlimit: 10; fill: none; fill-rule: nonzero; opacity: 1;" transform="translate(9.999999999999993 9.999999999999993) scale(0.24 0.24)" >
  <path d="M 487.864 130.236 v 165.76 c 0 13.28 -10.72 24 -24 24 c -13.2 0 -24 -10.72 -24 -24 v -128 c 0 -13.28 -10.72 -24 -23.92 -24 c -13.28 0 -24 10.72 -24 24 c 0 17.68 -14.32 32 -32 32 s -32 -14.32 -32 -32 V 11.836 c 9.92 -2.64 20.56 -3.84 32 -3.84 c 13.68 0 27.28 3.04 40 8 c 13.68 5.36 28.88 12.88 39.92 24 l 16 16 C 476.184 76.236 486.664 103.036 487.864 130.236 z" style="stroke: none; stroke-width: 1; stroke-dasharray: none; stroke-linecap: butt; stroke-linejoin: miter; stroke-miterlimit: 10; fill: #F9BA48; fill-rule: nonzero; opacity: 1;" transform=" matrix(1 0 0 1 0 0) " stroke-linecap="round" />
  <rect x="133.44" y="183.98" rx="0" ry="0" width="181" height="16" style="stroke: none; stroke-width: 1; stroke-dasharray: none; stroke-linecap: butt; stroke-linejoin: miter; stroke-miterlimit: 10; fill: #333333; fill-rule: nonzero; opacity: 1;" transform=" matrix(-0.707 0.7072 -0.7072 -0.707 518.0428 169.3455) "/>
  <rect x="223.38" y="288" rx="0" ry="0" width="113.12" height="16" style="stroke: none; stroke-width: 1; stroke-dasharray: none; stroke-linecap: butt; stroke-linejoin: miter; stroke-miterlimit: 10; fill: #333333; fill-rule: nonzero; opacity: 1;" transform=" matrix(-0.7071 0.7071 -0.7071 -0.7071 687.1855 307.36) "/>
  <path d="M 496 136.036 c 0.12 -32.928 -12.12 -63.36 -34.448 -85.696 l -16 -16 c -10.048 -10.056 -24.024 -18.496 -42.736 -25.8 c -14.512 -5.664 -28.944 -8.536 -42.888 -8.536 c -0.016 0 -0.024 0 -0.04 0 c -34.976 0 -62.184 10.912 -85.608 34.336 l -175.96 176 c -23.904 23.904 -34.104 65.176 0 99.312 l 18.336 18.344 L 10.344 434.34 C 3.184 441.5 0 449.036 0 458.788 c 0 10.656 3.672 20.192 10.344 26.864 c 10.336 10.344 21.04 10.344 29.648 10.344 c 7.504 0 14.792 -3.48 21.648 -10.344 l 106.32 -106.344 l 26.336 26.344 c 10.392 10.4 23.464 16.896 36.816 18.304 c 1.68 0.168 3.48 0.28 5.384 0.28 c 11.304 0 26.264 -3.744 41.104 -18.584 l 154.304 -154.336 v 44.68 c 0 17.648 14.352 32 32 32 c 17.64 0 31.992 -14.352 31.992 -32 v -157.6 C 495.904 137.596 496 136.836 496 136.036 z M 50.328 474.34 c -3.76 3.752 -7.232 5.656 -10.336 5.656 c -7.368 0 -12.688 0 -18.336 -5.656 C 18.064 470.748 16 465.076 16 458.788 c 0 -5.456 1.528 -9.008 5.656 -13.136 l 106.312 -106.344 l 28.68 28.688 L 50.328 474.34 z M 479.888 295.996 c 0 8.824 -7.168 16 -15.992 16 s -16 -7.176 -16 -16 V 167.988 c 0 -17.648 -14.352 -32 -31.992 -32 s -31.992 14.352 -31.992 32 c 0 13.232 -10.768 24 -23.992 24 s -23.992 -10.768 -23.992 -24 V 39.996 h -16 v 127.992 c 0 22.056 17.936 40 39.992 40 s 39.992 -17.944 39.992 -40 c 0 -8.824 7.168 -16 15.992 -16 s 15.992 7.176 15.992 16 v 60.704 L 266.28 394.34 c -10.344 10.352 -21.656 14.936 -33.496 13.704 c -9.576 -1.008 -19.488 -6 -27.176 -13.704 l -95.976 -96 c -28.28 -28.312 -17.68 -59.008 0 -76.688 l 175.96 -176 c 20.504 -20.504 43.416 -29.648 74.296 -29.648 c 0.016 0 0.032 0 0.04 0 c 11.944 0 24.416 2.504 37.08 7.448 c 16.6 6.488 28.784 13.744 37.232 22.2 l 16 16 c 19.288 19.296 29.856 45.696 29.76 74.328 c 0 0.008 0 0.008 0 0.016 h -0.112 v 2.36 c -0.624 28.64 -10.544 52.872 -29.648 71.984 l 11.312 11.312 c 7.312 -7.312 13.344 -15.32 18.336 -23.856 V 295.996 z" style="stroke: none; stroke-width: 1; stroke-dasharray: none; stroke-linecap: butt; stroke-linejoin: miter; stroke-miterlimit: 10; fill: #333333; fill-rule: nonzero; opacity: 1;" transform=" matrix(1 0 0 1 0 0) " stroke-linecap="round" />
  <rect x="351.92" y="64" rx="0" ry="0" width="16" height="40" style="stroke: none; stroke-width: 1; stroke-dasharray: none; stroke-linecap: butt; stroke-linejoin: miter; stroke-miterlimit: 10; fill: #333333; fill-rule: nonzero; opacity: 1;" transform=" matrix(1 0 0 1 0 0) "/>
  <rect x="351.92" y="120" rx="0" ry="0" width="16" height="16" style="stroke: none; stroke-width: 1; stroke-dasharray: none; stroke-linecap: butt; stroke-linejoin: miter; stroke-miterlimit: 10; fill: #333333; fill-rule: nonzero; opacity: 1;" transform=" matrix(1 0 0 1 0 0) "/>
</g>
<g style="stroke: none; stroke-width: 1; stroke-dasharray: none; stroke-linecap: butt; stroke-linejoin: miter; stroke-miterlimit: 10; fill: none; fill-rule: nonzero; opacity: 1;" transform="translate(401.06999999999994 14.120000000000005) scale(0.45 0.47)" >
  <path d="M 6.746 108.481 c -0.972 1.908 -1.368 3.78 -0.792 5.616 c 0.396 1.836 1.764 3.636 3.708 5.4 l 2.7 29.089 c -0.936 0.971 -1.44 2.051 -1.656 2.844 c -0.216 0.791 -0.504 1.043 0.504 2.16 c 0.936 0.971 3.492 3.131 5.292 4.104 c 1.692 0.9 3.312 1.404 5.004 1.512 c 1.872 1.404 3.24 3.816 4.248 7.381 c 0.936 3.455 0.576 6.768 1.44 13.68 c 0.72 6.803 2.052 20.447 3.168 27.324 c 1.116 6.803 2.052 11.16 3.204 13.355 c -0.792 2.951 -0.864 5.615 -0.072 7.992 c 0.72 2.268 0.972 4.32 4.644 6.012 c 3.708 1.729 11.196 3.707 17.172 4.283 c 5.868 0.469 13.141 -0.576 17.784 -1.332 c 4.464 -0.756 7.416 -1.08 9.432 -3.348 c 2.017 -2.484 2.664 -6.047 2.34 -11.088 a 597.55 597.55 0 0 1 1.513 -9.863 c 0.359 -2.736 0.647 -2.197 1.008 -6.156 c 0.252 -4.213 0.396 -11.953 1.008 -18.072 c 0.576 -6.156 1.872 -13.896 2.772 -18.359 c 0.72 -4.537 1.332 -6.445 2.268 -8.496 c 0.864 -2.16 1.368 -2.629 3.456 -4.176 c 2.088 -1.656 4.968 -3.492 8.928 -5.508 c -0.359 -2.09 -0.576 -5.006 -0.647 -8.605 c -0.181 -3.744 -0.324 -9.18 -0.145 -13.248 c 0.036 -4.104 0.396 -7.848 0.792 -11.231 c 1.261 -0.72 2.16 -1.728 2.845 -3.024 c 0.684 -1.44 1.008 -2.988 1.115 -5.04 c 2.628 -3.204 4.104 -6.408 4.824 -9.756 c 0.576 -3.42 0.288 -7.128 -1.008 -10.152 c -1.332 -3.06 -3.528 -5.688 -6.732 -8.028 c 3.456 -3.204 5.112 -6.624 5.257 -10.692 c 0 -4.176 -2.521 -10.224 -4.788 -13.428 c -2.305 -3.204 -5.221 -5.004 -8.748 -5.544 c 2.447 -4.932 2.987 -9.468 1.62 -13.752 c -1.44 -4.356 -5.545 -7.848 -10.08 -11.844 c -4.645 -4.068 -13.32 -7.776 -17.28 -12.096 c -4.068 -4.5 -3.636 -11.556 -6.336 -14.22 c -2.809 -2.7 -8.244 -2.412 -9.648 -1.908 c -1.332 0.432 1.224 2.7 1.404 4.32 c -0.036 1.368 1.044 2.736 -1.332 4.644 c -2.484 1.908 -10.044 4.176 -13.104 6.948 c -3.168 2.7 -4.716 5.76 -5.184 9.324 c -7.812 5.04 -13.428 9.72 -16.848 14.04 c -3.492 4.284 -3.636 7.596 -3.888 11.736 c -0.288 4.104 0.36 8.244 2.088 12.708 c -8.784 4.428 -14.688 9.396 -17.856 14.76 C -1.1 84.183 0.124 91.131 0.952 96.243 c 0.718 4.966 2.698 8.998 5.794 12.238 z" style="stroke: #000; stroke-width: 0.04; stroke-dasharray: none; stroke-linecap: butt; stroke-linejoin: miter; stroke-miterlimit: 10; fill: rgb(0,0,0); fill-rule: evenodd; opacity: 1;" transform="" stroke-linecap="round" />
  <path d="M 59.342 1.129 c 2.484 -0.036 4.536 0.612 5.76 2.34 c 1.188 1.584 0.468 4.716 1.872 7.452 c 1.296 2.556 2.484 5.04 6.336 8.424 c 3.888 3.312 12.528 7.92 16.74 11.484 c 3.96 3.384 6.3 5.436 7.452 9.216 c 1.116 3.744 0.899 8.316 -0.648 13.572 c -7.704 0.324 -15.048 -0.216 -22.716 -1.764 c -7.704 -1.656 -17.316 -4.572 -22.716 -7.38 c -5.364 -2.772 -7.668 -5.76 -9.432 -9.108 c -1.908 -3.384 -2.448 -7.668 -1.764 -10.764 c 0.648 -3.276 2.772 -5.94 5.544 -7.992 c 2.664 -1.98 7.92 -2.7 10.476 -4.104 c 2.376 -1.548 3.744 -3.204 4.249 -5.112 c 0.503 -2.016 0.07 -3.924 -1.153 -6.264 z" style="stroke: #000; stroke-width: 0.04; stroke-dasharray: none; stroke-linecap: butt; stroke-linejoin: miter; stroke-miterlimit: 10; fill: #ffffe6; fill-rule: evenodd; opacity: 1;" transform="" stroke-linecap="round" />
  <path d="M 38.174 27.445 c -0.432 3.852 0.036 7.2 1.8 10.188 c 1.62 2.952 3.42 4.932 8.316 7.488 c 4.788 2.484 14.22 5.4 20.952 7.344 c 6.696 1.728 14.112 2.736 19.332 3.42 c 5.04 0.612 8.496 -0.828 11.484 0.396 c 2.988 1.116 5.004 3.888 6.588 6.66 c 1.548 2.628 2.772 6.336 2.557 9.612 c -0.288 3.24 -1.692 6.516 -4.213 9.972 c -3.491 -1.872 -8.855 -3.168 -16.235 -3.888 c -7.416 -0.864 -19.296 -0.18 -28.008 -0.576 c -8.928 -0.468 -18.396 0.288 -24.66 -1.62 c -6.3 -2.016 -9.972 -6.48 -12.672 -10.188 c -2.808 -3.78 -3.564 -8.172 -3.672 -12.204 c -0.108 -4.248 0.864 -9.036 2.772 -12.564 c 1.8 -3.528 5.364 -5.76 8.064 -8.064 c 2.627 -2.376 5.11 -4.32 7.595 -5.976 z" style="stroke: #000; stroke-width: 0.04; stroke-dasharray: none; stroke-linecap: butt; stroke-linejoin: miter; stroke-miterlimit: 10; fill: #ffffe6; fill-rule: evenodd; opacity: 1;" transform="" stroke-linecap="round" />
  <path d="M 20.894 65.785 c 0.432 1.908 1.656 3.96 4.068 6.156 c 2.304 2.196 4.392 5.292 9.864 6.768 c 5.4 1.188 14.508 0.936 22.752 1.188 c 8.244 0.144 19.08 0 26.244 0.54 c 6.984 0.504 11.629 1.224 15.876 2.7 c 4.213 1.404 7.272 2.952 9.324 5.76 c 1.944 2.736 2.592 6.588 2.376 10.584 c -0.252 3.816 -1.62 7.884 -3.96 12.348 c -9.324 3.24 -19.403 5.4 -30.384 6.336 c -11.124 0.9 -24.084 1.008 -35.388 -0.648 c -11.448 -1.728 -25.596 -4.104 -32.184 -9.504 c -6.588 -5.652 -8.856 -16.272 -6.948 -23.4 c 1.944 -7.164 7.884 -13.212 18.36 -18.828 z" style="stroke: #000; stroke-width: 0.04; stroke-dasharray: none; stroke-linecap: butt; stroke-linejoin: miter; stroke-miterlimit: 10; fill: #ffffe6; fill-rule: evenodd; opacity: 1;" transform="" stroke-linecap="round" />
  <path d="M 101.857 121.441 c -8.136 3.779 -17.352 6.229 -28.08 7.199 c -10.836 0.865 -25.848 -0.072 -36.144 -1.439 c -10.332 -1.404 -18.612 -3.6 -25.272 -6.732 a 18.289 18.289 0 0 1 -3.888 -5.976 c -0.648 -1.728 -0.54 -3.42 0.18 -4.68 c -0.252 1.296 2.484 2.772 8.208 4.572 c 5.868 1.692 15.804 4.932 26.064 5.976 c 10.08 1.008 23.292 1.152 34.236 0.035 c 10.836 -1.223 20.808 -3.6 30.456 -7.127 c 0.252 1.152 0.071 2.196 -0.937 3.672 c -1.042 1.332 -2.518 2.88 -4.823 4.5 z" style="stroke: #000; stroke-width: 0.04; stroke-dasharray: none; stroke-linecap: butt; stroke-linejoin: miter; stroke-miterlimit: 10; fill: #fbdf99; fill-rule: evenodd; opacity: 1;" transform="" stroke-linecap="round" />
  <path d="M 12.074 122.988 l 1.8 26.354 c 4.32 2.664 11.844 4.68 22.572 5.65 c 10.8 0.828 30.24 1.117 41.652 0.469 c 11.268 -0.576 19.729 -1.836 25.813 -3.779 a 197.671 197.671 0 0 1 -0.864 -14.438 c -0.145 -4.787 -0.108 -9.359 0.107 -14.004 c -5.399 2.916 -11.88 5.076 -19.872 6.336 c -8.136 1.225 -18.54 1.621 -27.863 1.332 c -9.468 -0.395 -20.376 -1.943 -27.72 -3.275 c -7.273 -1.367 -12.386 -2.916 -15.625 -4.645 z" style="stroke: #000; stroke-width: 0.04; stroke-dasharray: none; stroke-linecap: butt; stroke-linejoin: miter; stroke-miterlimit: 10; fill: #fbdf99; fill-rule: evenodd; opacity: 1;" transform="" stroke-linecap="round" />
  <path d="M 96.746 156.686 c -2.593 1.98 -8.425 3.42 -18.036 4.031 c -9.792 0.576 -29.196 0.469 -39.313 -0.18 c -10.08 -0.648 -16.596 -2.52 -20.916 -3.672 c -4.428 -1.297 -4.716 -2.844 -5.328 -3.672 c -0.72 -0.9 -1.584 -2.053 1.44 -1.512 c 3.024 0.539 8.676 3.275 16.38 4.463 c 7.704 0.9 20.7 1.441 29.124 1.621 c 8.244 0.107 14.04 0 20.448 -0.469 c 6.372 -0.504 12.096 -1.225 17.604 -2.305 a 74.895 74.895 0 0 0 -1.403 1.695 z" style="stroke: #000; stroke-width: 0.04; stroke-dasharray: none; stroke-linecap: butt; stroke-linejoin: miter; stroke-miterlimit: 10; fill: #fbdf99; fill-rule: evenodd; opacity: 1;" transform="" stroke-linecap="round" />
  <path d="M 26.33 160.502 c 1.188 1.547 2.232 5.111 3.132 10.836 c 0.792 5.76 1.368 14.65 2.304 23.219 c 1.008 8.424 2.052 17.281 3.528 27 c 2.952 2.844 7.056 4.752 12.456 5.869 c 5.364 1.08 13.789 1.295 19.836 0.504 c 6.012 -0.828 11.195 -2.809 15.948 -5.652 c 0.323 -3.961 0.575 -9.107 1.151 -15.732 c 0.468 -6.732 1.116 -17.641 1.8 -23.688 c 0.648 -6.084 0.937 -8.641 1.98 -12.385 c 0.936 -3.779 2.16 -7.02 3.672 -10.008 c -5.652 1.188 -11.52 2.088 -18 2.701 c -6.48 0.467 -12.528 1.295 -20.484 0.826 c -8.063 -0.467 -16.991 -1.584 -27.323 -3.49 z" style="stroke: #000; stroke-width: 0.04; stroke-dasharray: none; stroke-linecap: butt; stroke-linejoin: miter; stroke-miterlimit: 10; fill: #fbdf99; fill-rule: evenodd; opacity: 1;" transform="" stroke-linecap="round" />
  <path d="M 34.934 165.469 l 1.224 9.793 l 9.9 0.719 l -8.892 -1.656 l -2.232 -8.856 z M 37.13 179.977 l 1.944 17.568 l 9.864 1.691 l -8.676 -2.807 l -3.132 -16.452 z M 40.622 203.449 l 0.972 16.379 l 7.704 2.018 l -6.12 -3.133 l -2.556 -15.264 z M 51.782 167.629 l 0.288 8.389 l 6.228 0.215 l -4.824 -1.152 l -1.728 -6.299 l 0.036 -1.153 z M 52.105 180.301 l 1.296 19.512 l 5.795 0.396 l -4.428 -1.332 l -2.663 -18.576 z M 53.618 204.277 l 0.576 17.531 l 5.436 0.396 l -4.248 -1.512 l -1.764 -16.415 z M 62.905 167.232 l 0.469 8.785 l 4.859 -0.217 l -3.852 -0.719 l -1.548 -6.301 l 0.072 -1.548 z M 62.653 179.689 l 0.828 20.447 l 6.84 -0.324 l -5.399 -0.971 l -2.269 -19.152 z M 63.157 204.816 l 0.54 17.354 l 5.257 -0.217 l -4.248 -0.721 l -1.549 -16.416 z M 73.489 203.988 l -1.188 17.102 l 4.32 -1.008 l -3.097 -0.109 l -0.035 -15.985 z M 73.382 179.473 l -0.324 19.656 l 4.896 -1.008 l -3.889 0.252 l -0.683 -18.9 z M 74.21 166.656 l -0.504 8.172 l 7.235 -0.936 l -5.832 -0.18 l -0.899 -7.056 z M 82.562 166.766 l -0.036 6.623 l 2.736 -0.324 l -1.512 -0.611 l -1.188 -5.688 z M 81.518 179.762 l -0.792 17.496 l 3.348 -1.262 l -2.304 -0.252 l -0.252 -15.982 z M 80.113 203.666 l -1.151 16.486 l 4.14 -2.195 l -3.312 0.684 l 0.323 -14.977 v 0.002 z" style="stroke: #000; stroke-width: 0.04; stroke-dasharray: none; stroke-linecap: butt; stroke-linejoin: miter; stroke-miterlimit: 10; fill: rgb(0,0,0); fill-rule: evenodd; opacity: 1;" transform="" stroke-linecap="round" />
</g>
  <g transform="translate(251.37 92.68) rotate(353.57)">
   <text font-family="Harrington" font-size="40" font-weight="normal" style="stroke: none; stroke-width: 1; stroke-dasharray: none; stroke-linecap: butt; stroke-linejoin: miter; stroke-miterlimit: 10; fill: #f5e2f5; fill-rule: nonzero; opacity: 1;" ><tspan x="-145.7" y="8.98" style="stroke: none; stroke-width: 0; stroke-dasharray: none; stroke-linecap: butt; stroke-linejoin: miter; stroke-miterlimit: 4; fill: #f5e2f5; fill-rule: ; opacity: 1;">S</tspan><tspan x="-122.7" y="8.98" style="stroke: none; stroke-width: 0; stroke-dasharray: none; stroke-linecap: butt; stroke-linejoin: miter; stroke-miterlimit: 4; fill: #f5e2f5; fill-rule: ; opacity: 1;">u</tspan><tspan x="-100.2" y="8.98" style="stroke: none; stroke-width: 0; stroke-dasharray: none; stroke-linecap: butt; stroke-linejoin: miter; stroke-miterlimit: 4; fill: #f5e2f5; fill-rule: ; opacity: 1;">d</tspan><tspan x="-77.93" y="8.98" style="stroke: none; stroke-width: 0; stroke-dasharray: none; stroke-linecap: butt; stroke-linejoin: miter; stroke-miterlimit: 4; fill: #f5e2f5; fill-rule: ; opacity: 1;">h</tspan><tspan x="-56.21" y="8.98" style="stroke: none; stroke-width: 0; stroke-dasharray: none; stroke-linecap: butt; stroke-linejoin: miter; stroke-miterlimit: 4; fill: #f5e2f5; fill-rule: ; opacity: 1;">a</tspan><tspan x="-35.04" y="8.98" style="stroke: none; stroke-width: 0; stroke-dasharray: none; stroke-linecap: butt; stroke-linejoin: miter; stroke-miterlimit: 4; fill: #f5e2f5; fill-rule: ; opacity: 1;">-</tspan><tspan x="-20.78" y="8.98" style="stroke: none; stroke-width: 0; stroke-dasharray: none; stroke-linecap: butt; stroke-linejoin: miter; stroke-miterlimit: 4; fill: #f5e2f5; fill-rule: ; opacity: 1;">I</tspan><tspan x="-10.23" y="8.98" style="stroke: none; stroke-width: 0; stroke-dasharray: none; stroke-linecap: butt; stroke-linejoin: miter; stroke-miterlimit: 4; fill: #f5e2f5; fill-rule: ; opacity: 1;">c</tspan><tspan x="9.53" y="8.98" style="stroke: none; stroke-width: 0; stroke-dasharray: none; stroke-linecap: butt; stroke-linejoin: miter; stroke-miterlimit: 4; fill: #f5e2f5; fill-rule: ; opacity: 1;">e</tspan><tspan x="29.18" y="8.98" style="stroke: none; stroke-width: 0; stroke-dasharray: none; stroke-linecap: butt; stroke-linejoin: miter; stroke-miterlimit: 4; fill: #f5e2f5; fill-rule: ; opacity: 1;"> </tspan><tspan x="39.18" y="8.98" style="stroke: none; stroke-width: 0; stroke-dasharray: none; stroke-linecap: butt; stroke-linejoin: miter; stroke-miterlimit: 4; fill: #f5e2f5; fill-rule: ; opacity: 1;">c</tspan><tspan x="58.95" y="8.98" style="stroke: none; stroke-width: 0; stroke-dasharray: none; stroke-linecap: butt; stroke-linejoin: miter; stroke-miterlimit: 4; fill: #f5e2f5; fill-rule: ; opacity: 1;">r</tspan><tspan x="75" y="8.98" style="stroke: none; stroke-width: 0; stroke-dasharray: none; stroke-linecap: butt; stroke-linejoin: miter; stroke-miterlimit: 4; fill: #f5e2f5; fill-rule: ; opacity: 1;">e</tspan><tspan x="94.65" y="8.98" style="stroke: none; stroke-width: 0; stroke-dasharray: none; stroke-linecap: butt; stroke-linejoin: miter; stroke-miterlimit: 4; fill: #f5e2f5; fill-rule: ; opacity: 1;">a</tspan><tspan x="115.82" y="8.98" style="stroke: none; stroke-width: 0; stroke-dasharray: none; stroke-linecap: butt; stroke-linejoin: miter; stroke-miterlimit: 4; fill: #f5e2f5; fill-rule: ; opacity: 1;">m</tspan></text>
 </g>
</svg>